<svg xmlns="http://www.w3.org/2000/svg" id="svg857" version="1.1" viewBox="0 0 16.933 16.933" height="64" width="64"><defs id="defs851"><style id="style859">.cls-1{fill:#2d3277}.cls-3{fill:#fff}</style></defs><g id="layer1"><g transform="scale(.13168)" data-name="Capa 1" id="Capa_1-2"><g transform="translate(-37.295 20.094) scale(1.57694)" id="g958"><path class="cls-1" d="M105.19 26.67C105.19 12 86.94 0 64.42 0 41.9 0 23.65 12 23.65 26.67v1.56c0 15.59 16 28.21 40.77 28.21 25 0 40.78-12.62 40.78-28.21z" id="path865"/><path d="M103.63 26.65c0 13.85-17.55 25.08-39.2 25.08-21.65 0-39.21-11.23-39.21-25.08 0-13.85 17.55-25.08 39.21-25.08s39.2 11.23 39.2 25.08z" id="path867" fill="#ffd100"/><path class="cls-3" d="M51.41 18.74s-.41.45-.16.77c.62.79 2.53 1.24 4.46.81 1.15-.26 2.63-1.43 4.06-2.56a15.92 15.92 0 014.62-3 5.23 5.23 0 013.38-.09 10.09 10.09 0 013.07 1.79c2.69 2 13.47 11.43 15.34 13.06A92.94 92.94 0 01103.41 24c-.78-4.83-3.72-9.25-8.18-12.87-6.22 2.61-13.81 4-21.23.34a20.8 20.8 0 00-8-1.82c-5.89.14-8.44 2.69-11.14 5.39z" id="path869"/><path class="cls-3" d="M85.74 30.59c-.13-.11-12.68-11.09-15.53-13.23a6.86 6.86 0 00-3.52-1.67 4.56 4.56 0 00-1.68.16 15.17 15.17 0 00-4.59 2.73c-1.59 1.27-3.09 2.46-4.48 2.77a7.24 7.24 0 01-4.94-.74 2.21 2.21 0 01-.82-.9 1.53 1.53 0 01.42-1.64l3.47-3.75 1.22-1.2a23.18 23.18 0 00-3.16.71 13.48 13.48 0 01-3.68.69 35.33 35.33 0 01-3.76-.59 55.33 55.33 0 01-10-3.61c-4.93 3.67-8.22 8.25-9.17 13.3.71.19 1.85.53 2.33.64 11.14 2.47 14.61 5 15.24 5.56a3.69 3.69 0 015.79.34 4.25 4.25 0 012.66-.93 4.81 4.81 0 011.59.28 3.61 3.61 0 012.24 2 3.74 3.74 0 011.55-.33 4.74 4.74 0 011.86.41A4 4 0 0161 36h.44a4.42 4.42 0 014.42 4.42 4.32 4.32 0 01-.53 2.09 7.1 7.1 0 003.84 1 2.43 2.43 0 001.79-.79c.11-.15.23-.34.12-.47l-3.17-3.45s-.52-.49-.35-.68c.17-.19.5.08.72.27 1.61 1.34 3.56 3.36 3.56 3.36s.16.27.88.4a3.22 3.22 0 002.49-.58 4.08 4.08 0 00.55-.55 1.66 1.66 0 00-.13-2.02L72 34.85s-.53-.49-.35-.68c.18-.19.5.09.73.28 1.16 1 2.81 2.62 4.38 4.16a3 3 0 003.52-.12 2.53 2.53 0 001.31-2.3 2.65 2.65 0 00-.78-1.54l-5-5s-.53-.45-.35-.68c.18-.23.5.08.73.27 1.59 1.34 5.92 5.31 5.92 5.31a3.06 3.06 0 003.4-.07 2.3 2.3 0 001.12-1.8 2.69 2.69 0 00-.89-2.09z" id="path871"/><path class="cls-3" d="M61.41 37a11.57 11.57 0 00-1.74.38c-.06 0 0-.35.12-.53.12-.18 1.1-3.26-1.4-4.33a2.94 2.94 0 00-3.48.52c-.1.11-.15.1-.16 0a2.75 2.75 0 00-1.94-2.56A3.76 3.76 0 0048.56 32a2.72 2.72 0 10-.81 2.32.11.11 0 010 .09A3.58 3.58 0 0050 38.49a2.66 2.66 0 002.64-.4c.21-.16.25-.09.22.11-.1.63 0 2 1.92 2.76a2.47 2.47 0 002.86-.53c.24-.23.31-.19.32.15A3.44 3.44 0 1061.41 37z" id="path873"/><path class="cls-1" d="M86.22 29.28c-3.86-3.38-12.8-11.15-15.22-13a10.83 10.83 0 00-3.16-1.84 5.24 5.24 0 00-1.55-.24 6.49 6.49 0 00-2 .33 16 16 0 00-4.64 2.93l-.07.06c-1.41 1.12-2.86 2.27-4 2.52a6.53 6.53 0 01-1.46.16 3.74 3.74 0 01-2.75-.88c-.07-.09 0-.23.13-.43l3.5-3.66c2.66-2.66 5.18-5.18 11-5.31h.29a20.62 20.62 0 017.62 1.81 23.67 23.67 0 0010.38 2.49 27.24 27.24 0 0011.4-2.73c-.45-.38-.91-.74-1.38-1.09a25.15 25.15 0 01-10 2.27 22 22 0 01-9.71-2.34 21.85 21.85 0 00-8.3-2H66a14.38 14.38 0 00-9.45 3.35 19.2 19.2 0 00-4.72.86 12.89 12.89 0 01-3.32.64h-1.27a65.48 65.48 0 01-12-3.31c-.48.34-1 .7-1.41 1.06 5 2 11 3.62 13 3.74.53 0 1.1.1 1.66.1a13.8 13.8 0 003.75-.7c.73-.2 1.52-.42 2.36-.58-.22.22-.45.44-.67.67l-3.5 3.74a1.73 1.73 0 00-.43 1.91 2.44 2.44 0 00.91 1 7.23 7.23 0 003.67.93 6.73 6.73 0 001.42-.15c1.45-.32 3-1.53 4.58-2.81a15.26 15.26 0 014.5-2.7 5.46 5.46 0 011.26-.17h.32a6.81 6.81 0 013.41 1.63c2.83 2.13 15.39 13.11 15.51 13.22a2.44 2.44 0 01.76 1.85 2 2 0 01-1 1.6 3 3 0 01-1.64.51 2.71 2.71 0 01-1.46-.42s-4.35-4-5.93-5.31a1.31 1.31 0 00-.74-.39.4.4 0 00-.33.15c-.25.31 0 .73.35 1l5 5.06a2.27 2.27 0 01.69 1.36 2.3 2.3 0 01-1.19 2.08 3.23 3.23 0 01-1.78.59 2.51 2.51 0 01-1.43-.44l-.72-.71c-1.32-1.29-2.68-2.63-3.68-3.46a1.28 1.28 0 00-.75-.39.4.4 0 00-.31.13c-.12.13-.2.35.09.73a1.64 1.64 0 00.25.28l3.67 4.12a1.42 1.42 0 01.08 1.76l-.13.17a3.33 3.33 0 01-.34.32 2.9 2.9 0 01-1.79.57 2.6 2.6 0 01-.5 0 1.35 1.35 0 01-.72-.3c-.2-.21-2-2.1-3.57-3.37a1.3 1.3 0 00-.72-.38.45.45 0 00-.33.14c-.3.34.15.83.35 1l3.12 3.45a.68.68 0 01-.11.21c-.12.16-.5.54-1.63.68a3 3 0 01-.42 0 7.2 7.2 0 01-3.06-.9 4.56 4.56 0 00.45-2 4.68 4.68 0 00-4.67-4.67h-.16a4.15 4.15 0 00-2.37-4.38 4.81 4.81 0 00-2-.43 4 4 0 00-1.43.25 4 4 0 00-2.29-1.94 5.24 5.24 0 00-1.65-.28 4.39 4.39 0 00-2.61.84 3.91 3.91 0 00-5.85-.33c-1-.75-4.84-3.2-15.18-5.55-.5-.11-1.65-.44-2.35-.65a16.25 16.25 0 00-.27 1.7l2.29.54c10.56 2.34 14 4.78 14.63 5.24a4.16 4.16 0 00-.3 1.52 4 4 0 004 4 4.37 4.37 0 00.72-.06 4.63 4.63 0 003 3.45 3.79 3.79 0 002.31.16 4.1 4.1 0 002.45 2.29 4.23 4.23 0 001.56.32 3.58 3.58 0 001.21-.21 4.66 4.66 0 007.65 1.48 8.81 8.81 0 004 1.17 5.74 5.74 0 00.6 0 3.62 3.62 0 002.6-1.4 1.91 1.91 0 00.16-.27 4.51 4.51 0 001.27.2 4.23 4.23 0 002.57-.92 3.51 3.51 0 001.51-2.19 4.12 4.12 0 00.86.09 4.76 4.76 0 002.63-.86 3.77 3.77 0 001.88-3.37 5.14 5.14 0 00.87.09 4.52 4.52 0 002.45-.76 3.58 3.58 0 001.71-2.78 3.76 3.76 0 00-.54-2.24 100.26 100.26 0 0116.29-5.1c0-.57-.13-1.14-.23-1.69a93.38 93.38 0 00-17.21 5.57zM61.41 43.62a3.17 3.17 0 01-3.19-3c0-.15 0-.54-.35-.54a.64.64 0 00-.39.2 2.19 2.19 0 01-1.56.71 2.69 2.69 0 01-1-.22c-1.82-.74-1.85-2-1.78-2.49a.45.45 0 00-.06-.38l-.11-.1h-.12a.53.53 0 00-.31.12 2.67 2.67 0 01-1.55.55 2.42 2.42 0 01-.86-.16A3.34 3.34 0 0148 34.39a.35.35 0 00-.1-.32l-.17-.14-.16.16a2.49 2.49 0 11.75-2.09l.08.67.37-.57a3.65 3.65 0 012.89-1.58 3.43 3.43 0 011.08.17A2.51 2.51 0 0154.51 33c0 .32.25.34.3.34a.43.43 0 00.29-.15 2.49 2.49 0 011.83-.77 3.42 3.42 0 011.37.31c2.34 1 1.28 4 1.27 4-.21.49-.21.71 0 .83l.09.05h.07a1.88 1.88 0 00.45-.12 4 4 0 011.25-.28 3.24 3.24 0 013.2 3.2 3.2 3.2 0 01-3.22 3.21z" id="path875"/></g></g></g></svg>